<?xml version="1.0" encoding="UTF-8" standalone="no"?>
<svg
   xmlns:dc="http://purl.org/dc/elements/1.1/"
   xmlns:cc="http://creativecommons.org/ns#"
   xmlns:rdf="http://www.w3.org/1999/02/22-rdf-syntax-ns#"
   xmlns:svg="http://www.w3.org/2000/svg"
   xmlns="http://www.w3.org/2000/svg"
   xmlns:sodipodi="http://sodipodi.sourceforge.net/DTD/sodipodi-0.dtd"
   xmlns:inkscape="http://www.inkscape.org/namespaces/inkscape"
   viewBox="0 0 512 512"
   version="1.1"
   id="svg4520"
   sodipodi:docname="cog-white.svg"
   inkscape:version="0.92.2 (5c3e80d, 2017-08-06)">
  <metadata
     id="metadata4526">
    <rdf:RDF>
      <cc:Work
         rdf:about="">
        <dc:format>image/svg+xml</dc:format>
        <dc:type
           rdf:resource="http://purl.org/dc/dcmitype/StillImage" />
        <dc:title></dc:title>
      </cc:Work>
    </rdf:RDF>
  </metadata>
  <defs
     id="defs4524" />
  <sodipodi:namedview
     pagecolor="#ffffff"
     bordercolor="#666666"
     borderopacity="1"
     objecttolerance="10"
     gridtolerance="10"
     guidetolerance="10"
     inkscape:pageopacity="0"
     inkscape:pageshadow="2"
     inkscape:window-width="1920"
     inkscape:window-height="1001"
     id="namedview4522"
     showgrid="false"
     inkscape:zoom="0.4609375"
     inkscape:cx="256"
     inkscape:cy="256"
     inkscape:window-x="-9"
     inkscape:window-y="-9"
     inkscape:window-maximized="1"
     inkscape:current-layer="svg4520" />
  <path
     d="M444.788 291.1l42.616 24.599c4.867 2.809 7.126 8.618 5.459 13.985-11.07 35.642-29.97 67.842-54.689 94.586a12.016 12.016 0 0 1-14.832 2.254l-42.584-24.595a191.577 191.577 0 0 1-60.759 35.13v49.182a12.01 12.01 0 0 1-9.377 11.718c-34.956 7.85-72.499 8.256-109.219.007-5.49-1.233-9.403-6.096-9.403-11.723v-49.184a191.555 191.555 0 0 1-60.759-35.13l-42.584 24.595a12.016 12.016 0 0 1-14.832-2.254c-24.718-26.744-43.619-58.944-54.689-94.586-1.667-5.366.592-11.175 5.459-13.985L67.212 291.1a193.48 193.48 0 0 1 0-70.199l-42.616-24.599c-4.867-2.809-7.126-8.618-5.459-13.985 11.07-35.642 29.97-67.842 54.689-94.586a12.016 12.016 0 0 1 14.832-2.254l42.584 24.595a191.577 191.577 0 0 1 60.759-35.13V25.759a12.01 12.01 0 0 1 9.377-11.718c34.956-7.85 72.499-8.256 109.219-.007 5.49 1.233 9.403 6.096 9.403 11.723v49.184a191.555 191.555 0 0 1 60.759 35.13l42.584-24.595a12.016 12.016 0 0 1 14.832 2.254c24.718 26.744 43.619 58.944 54.689 94.586 1.667 5.366-.592 11.175-5.459 13.985L444.788 220.9a193.485 193.485 0 0 1 0 70.2zM336 256c0-44.112-35.888-80-80-80s-80 35.888-80 80 35.888 80 80 80 80-35.888 80-80z"
     id="path4518" />
  <path
     style="fill:#ffffff;stroke:none;stroke-width:2.16949153"
     d="m 214.49315,499.46997 c -21.49445,-3.83666 -21.4084,-3.69256 -21.4084,-35.85462 v -27.46017 l -11.26902,-4.2742 c -6.19796,-2.35082 -20.24893,-10.24562 -31.22438,-17.54403 l -19.95536,-13.26982 -22.12458,12.72745 c -12.168522,7.0001 -24.038509,12.72745 -26.377754,12.72745 -15.91006,0 -68.913956,-91.08367 -61.114307,-105.02085 1.109035,-1.98174 11.660653,-9.19882 23.448038,-16.03797 l 21.43161,-12.43481 0.15731,-37.10576 0.15731,-37.10577 -22.33521,-12.68212 C 29.182861,197.79048 21.152409,191.89555 20.400671,188.90039 18.279685,180.44971 34.210395,143.85067 50.592078,119.53898 65.976745,96.706946 76.074529,85.911864 82.04708,85.911864 c 2.989616,0 14.607063,5.369492 25.81655,11.932204 11.20949,6.562712 21.37126,11.932202 22.58173,11.932202 1.21047,0 8.38935,-4.41602 15.95308,-9.813386 7.56372,-5.397363 21.16239,-13.237096 30.21927,-17.421628 l 16.46704,-7.60824 V 48.216311 c 0,-22.728779 0.5667,-27.214078 3.79661,-30.048809 12.46865,-10.9431456 105.76863,-10.9431456 118.23728,0 3.2299,2.834731 3.79661,7.32003 3.79661,30.048809 v 26.716705 l 16.46705,7.60824 c 9.05687,4.184532 22.65555,12.024265 30.21926,17.421628 7.56374,5.397366 14.74261,9.813386 15.95308,9.813386 1.21046,0 11.37225,-5.36949 22.58173,-11.932202 11.20948,-6.562712 22.88886,-11.932204 25.95413,-11.932204 6.10718,0 15.79331,10.361242 31.43608,33.627116 16.20049,24.09538 32.18224,60.95655 30.07276,69.36141 -0.75175,2.99516 -8.78219,8.89009 -23.47776,17.23436 l -22.33522,12.68212 0.15729,37.10577 0.15729,37.10576 21.4316,12.43481 c 11.78739,6.83915 22.33902,14.05623 23.44804,16.03797 7.79971,13.93718 -45.20418,105.02085 -61.11423,105.02085 -2.33926,0 -14.20924,-5.72735 -26.37776,-12.72745 L 381.364,401.06713 361.40865,414.33695 c -10.97546,7.29841 -25.02643,15.19321 -31.22438,17.54403 l -11.26902,4.2742 v 27.67579 c 0,26.3319 -0.23701,27.82697 -4.88135,30.78947 -11.59808,7.39812 -69.46753,10.21746 -99.54075,4.84953 z m 57.12888,-164.33642 c 25.43939,-5.39767 45.89898,-21.24269 57.23121,-44.32291 5.71581,-11.64134 6.3332,-15.0137 6.3332,-34.59369 0,-19.01384 -0.72073,-23.23274 -5.83196,-34.13866 -6.99726,-14.93017 -22.95797,-31.48703 -36.80796,-38.18278 -41.33094,-19.98137 -90.67623,-2.83739 -109.901,38.18278 -5.11124,10.90592 -5.83196,15.12482 -5.83196,34.13866 0,19.57999 0.61739,22.95235 6.3332,34.59369 10.99805,22.39961 29.98898,37.65354 54.41256,43.70538 14.04345,3.47978 20.0589,3.58884 34.06271,0.61753 z"
     id="path4528"
     inkscape:connector-curvature="0" />
</svg>
